<svg width="800" height="600" viewBox="0 0 800 600" xmlns="http://www.w3.org/2000/svg">
  <defs>
    <pattern id="grid" width="20" height="20" patternUnits="userSpaceOnUse">
      <path d="M 20 0 L 0 0 0 20" fill="none" stroke="rgba(255,255,255,0.06)" stroke-width="1"/>
    </pattern>
  </defs>
  <rect width="100%" height="100%" fill="#0a0a0a"/>
  <rect width="100%" height="100%" fill="url(#grid)"/>
  <!-- Radial burst -->
  <g stroke-width="2">
    <!-- 20 lines -->
    <line x1="400" y1="300" x2="400" y2="100" stroke="#ff8533"/>
    <line x1="400" y1="300" x2="482" y2="124" stroke="#22d3ee"/>
    <line x1="400" y1="300" x2="550" y2="180" stroke="#8fb8a2"/>
    <line x1="400" y1="300" x2="590" y2="250" stroke="#ff8533"/>
    <line x1="400" y1="300" x2="600" y2="320" stroke="#22d3ee"/>
    <line x1="400" y1="300" x2="580" y2="390" stroke="#8fb8a2"/>
    <line x1="400" y1="300" x2="520" y2="430" stroke="#ff8533"/>
    <line x1="400" y1="300" x2="440" y2="450" stroke="#22d3ee"/>
    <line x1="400" y1="300" x2="340" y2="450" stroke="#8fb8a2"/>
    <line x1="400" y1="300" x2="260" y2="430" stroke="#ff8533"/>
    <line x1="400" y1="300" x2="200" y2="390" stroke="#22d3ee"/>
    <line x1="400" y1="300" x2="180" y2="320" stroke="#8fb8a2"/>
    <line x1="400" y1="300" x2="190" y2="250" stroke="#ff8533"/>
    <line x1="400" y1="300" x2="230" y2="180" stroke="#22d3ee"/>
    <line x1="400" y1="300" x2="290" y2="124" stroke="#8fb8a2"/>
    <line x1="400" y1="300" x2="350" y2="100" stroke="#ff8533"/>
    <line x1="400" y1="300" x2="410" y2="124" stroke="#22d3ee"/>
    <line x1="400" y1="300" x2="470" y2="180" stroke="#8fb8a2"/>
    <line x1="400" y1="300" x2="510" y2="250" stroke="#ff8533"/>
    <line x1="400" y1="300" x2="520" y2="320" stroke="#22d3ee"/>
    <line x1="400" y1="300" x2="500" y2="390" stroke="#8fb8a2"/>
    <line x1="400" y1="300" x2="460" y2="430" stroke="#ff8533"/>
    <line x1="400" y1="300" x2="400" y2="450" stroke="#22d3ee"/>
    <line x1="400" y1="300" x2="340" y2="430" stroke="#8fb8a2"/>
    <line x1="400" y1="300" x2="300" y2="390" stroke="#ff8533"/>
    <line x1="400" y1="300" x2="280" y2="320" stroke="#22d3ee"/>
    <line x1="400" y1="300" x2="300" y2="250" stroke="#8fb8a2"/>
    <line x1="400" y1="300" x2="340" y2="180" stroke="#ff8533"/>
    <line x1="400" y1="300" x2="380" y2="124" stroke="#22d3ee"/>
    <line x1="400" y1="300" x2="420" y2="180" stroke="#8fb8a2"/>
  </g>
</svg>